<svg aria-hidden="true" style="position: absolute; width: 0; height: 0; overflow: hidden;" version="1.1" xmlns="http://www.w3.org/2000/svg" xmlns:xlink="http://www.w3.org/1999/xlink">
<defs>
<symbol id="i-time" viewBox="0 0 16 16">
<path d="M9 7v-3h-2v5h4v-2zM8 0c-4.418 0-8 3.582-8 8s3.582 8 8 8 8-3.582 8-8-3.582-8-8-8zM8 14c-3.313 0-6-2.687-6-6s2.687-6 6-6 6 2.687 6 6-2.687 6-6 6z"></path>
</symbol>
<symbol id="i-facebook" viewBox="0 0 16 16">
<path d="M9.5 3h2.5v-3h-2.5c-1.93 0-3.5 1.57-3.5 3.5v1.5h-2v3h2v8h3v-8h2.5l0.5-3h-3v-1.5c0-0.271 0.229-0.5 0.5-0.5z"></path>
</symbol>
<symbol id="i-instagram" viewBox="0 0 16 16">
<path d="M8 1.441c2.137 0 2.391 0.009 3.231 0.047 0.781 0.034 1.203 0.166 1.484 0.275 0.372 0.144 0.641 0.319 0.919 0.597 0.281 0.281 0.453 0.547 0.6 0.919 0.109 0.281 0.241 0.706 0.275 1.484 0.037 0.844 0.047 1.097 0.047 3.231s-0.009 2.391-0.047 3.231c-0.034 0.781-0.166 1.203-0.275 1.484-0.144 0.372-0.319 0.641-0.597 0.919-0.281 0.281-0.547 0.453-0.919 0.6-0.281 0.109-0.706 0.241-1.484 0.275-0.844 0.037-1.097 0.047-3.231 0.047s-2.391-0.009-3.231-0.047c-0.781-0.034-1.203-0.166-1.484-0.275-0.372-0.144-0.641-0.319-0.919-0.597-0.281-0.281-0.453-0.547-0.6-0.919-0.109-0.281-0.241-0.706-0.275-1.484-0.038-0.844-0.047-1.097-0.047-3.231s0.009-2.391 0.047-3.231c0.034-0.781 0.166-1.203 0.275-1.484 0.144-0.372 0.319-0.641 0.597-0.919 0.281-0.281 0.547-0.453 0.919-0.6 0.281-0.109 0.706-0.241 1.484-0.275 0.841-0.038 1.094-0.047 3.231-0.047zM8 0c-2.172 0-2.444 0.009-3.297 0.047-0.85 0.038-1.434 0.175-1.941 0.372-0.528 0.206-0.975 0.478-1.419 0.925-0.447 0.444-0.719 0.891-0.925 1.416-0.197 0.509-0.334 1.091-0.372 1.941-0.037 0.856-0.047 1.128-0.047 3.3s0.009 2.444 0.047 3.297c0.038 0.85 0.175 1.434 0.372 1.941 0.206 0.528 0.478 0.975 0.925 1.419 0.444 0.444 0.891 0.719 1.416 0.922 0.509 0.197 1.091 0.334 1.941 0.372 0.853 0.037 1.125 0.047 3.297 0.047s2.444-0.009 3.297-0.047c0.85-0.037 1.434-0.175 1.941-0.372 0.525-0.203 0.972-0.478 1.416-0.922s0.719-0.891 0.922-1.416c0.197-0.509 0.334-1.091 0.372-1.941 0.037-0.853 0.047-1.125 0.047-3.297s-0.009-2.444-0.047-3.297c-0.037-0.85-0.175-1.434-0.372-1.941-0.197-0.531-0.469-0.978-0.916-1.422-0.444-0.444-0.891-0.719-1.416-0.922-0.509-0.197-1.091-0.334-1.941-0.372-0.856-0.041-1.128-0.050-3.3-0.050v0z"></path>
<path d="M8 3.891c-2.269 0-4.109 1.841-4.109 4.109s1.841 4.109 4.109 4.109 4.109-1.841 4.109-4.109c0-2.269-1.841-4.109-4.109-4.109zM8 10.666c-1.472 0-2.666-1.194-2.666-2.666s1.194-2.666 2.666-2.666c1.472 0 2.666 1.194 2.666 2.666s-1.194 2.666-2.666 2.666z"></path>
<path d="M13.231 3.728c0 0.53-0.43 0.959-0.959 0.959s-0.959-0.43-0.959-0.959c0-0.53 0.43-0.959 0.959-0.959s0.959 0.43 0.959 0.959z"></path>
</symbol>
<symbol id="i-twitter" viewBox="0 0 16 16">
<path d="M16 3.538c-0.588 0.263-1.222 0.438-1.884 0.516 0.678-0.406 1.197-1.050 1.444-1.816-0.634 0.375-1.338 0.65-2.084 0.797-0.6-0.638-1.453-1.034-2.397-1.034-1.813 0-3.281 1.469-3.281 3.281 0 0.256 0.028 0.506 0.084 0.747-2.728-0.138-5.147-1.444-6.766-3.431-0.281 0.484-0.444 1.050-0.444 1.65 0 1.138 0.578 2.144 1.459 2.731-0.538-0.016-1.044-0.166-1.488-0.409 0 0.013 0 0.028 0 0.041 0 1.591 1.131 2.919 2.634 3.219-0.275 0.075-0.566 0.116-0.866 0.116-0.212 0-0.416-0.022-0.619-0.059 0.419 1.303 1.631 2.253 3.066 2.281-1.125 0.881-2.538 1.406-4.078 1.406-0.266 0-0.525-0.016-0.784-0.047 1.456 0.934 3.181 1.475 5.034 1.475 6.037 0 9.341-5.003 9.341-9.341 0-0.144-0.003-0.284-0.009-0.425 0.641-0.459 1.197-1.038 1.637-1.697z"></path>
</symbol>
<symbol id="i-github" viewBox="0 0 16 16">
<path d="M8 0.198c-4.418 0-8 3.582-8 8 0 3.535 2.292 6.533 5.471 7.591 0.4 0.074 0.547-0.174 0.547-0.385 0-0.191-0.008-0.821-0.011-1.489-2.226 0.484-2.695-0.944-2.695-0.944-0.364-0.925-0.888-1.171-0.888-1.171-0.726-0.497 0.055-0.486 0.055-0.486 0.803 0.056 1.226 0.824 1.226 0.824 0.714 1.223 1.872 0.869 2.328 0.665 0.072-0.517 0.279-0.87 0.508-1.070-1.777-0.202-3.645-0.888-3.645-3.954 0-0.873 0.313-1.587 0.824-2.147-0.083-0.202-0.357-1.015 0.077-2.117 0 0 0.672-0.215 2.201 0.82 0.638-0.177 1.322-0.266 2.002-0.269 0.68 0.003 1.365 0.092 2.004 0.269 1.527-1.035 2.198-0.82 2.198-0.82 0.435 1.102 0.162 1.916 0.079 2.117 0.513 0.56 0.823 1.274 0.823 2.147 0 3.073-1.872 3.749-3.653 3.947 0.287 0.248 0.543 0.735 0.543 1.481 0 1.070-0.009 1.932-0.009 2.195 0 0.213 0.144 0.462 0.55 0.384 3.177-1.059 5.466-4.057 5.466-7.59 0-4.418-3.582-8-8-8z"></path>
</symbol>
<symbol id="i-location" viewBox="0 0 32 32">
<path d="M19.985 28.050l7.033-3.214v-20.886l-7.033 3.213v20.887zM12.015 24.836l6.98 2.893v-20.887l-6.98-2.892v20.886zM3.981 7.163v20.887l7.043-2.892v-20.887l-7.043 2.892z"></path>
</symbol>
<symbol id="i-story" viewBox="0 0 24 24">
<path d="M9 3.984v1.406q-1.266-0.516-2.625-0.516-1.313 0-2.602 0.516t-2.32 1.547l3.328 3.328h1.078v1.125q0.656 0.609 1.477 0.961t1.664 0.398v2.25h-3v3q0 0.844 0.586 1.43t1.43 0.586h9.984q0.844 0 1.523-0.422t1.078-1.102 0.398-1.477v-13.031h-12zM7.875 10.406v-2.156h-2.25l-1.078-1.031q0.891-0.328 1.828-0.328 2.063 0 3.563 1.453l1.406 1.406-0.188 0.188q-0.797 0.797-1.922 0.797-0.703 0-1.359-0.328zM18.984 17.016q0 0.375-0.281 0.68t-0.703 0.305-0.703-0.305-0.281-0.68v-2.016h-6v-2.578q0.891-0.375 1.547-1.031l0.188-0.188 2.859 2.813h1.406v-1.406l-6-6v-0.609h7.969v11.016z"></path>
</symbol>
<symbol id="i-add" viewBox="0 0 24 24">
<path d="M21.984 5.203l-11.391 11.391-4.266-4.219 1.453-1.406 2.813 2.813 9.984-9.984zM12 20.016q-1.641 0-3.094-0.633t-2.555-1.734-1.734-2.555-0.633-3.094 0.633-3.094 1.734-2.555 2.555-1.734 3.094-0.633q1.172 0 2.25 0.328t2.016 0.938l1.453-1.453q-1.219-0.844-2.672-1.313t-3.047-0.469q-2.063 0-3.867 0.773t-3.188 2.156-2.156 3.188-0.773 3.867 0.773 3.867 2.156 3.188 3.188 2.156 3.867 0.773q1.313 0 2.508-0.305t2.273-0.914l-1.5-1.5q-0.75 0.375-1.57 0.563t-1.711 0.188zM18.984 15h-3v2.016h3v3h2.016v-3h3v-2.016h-3v-3h-2.016v3z"></path>
</symbol>
<symbol id="i-safe" viewBox="0 0 24 24">
<path d="M19 9v-3c0-2-2-5-7-5s-7 3-7 5v3h-2v11c0 1.654 1.346 3 3 3h12c1.654 0 3-1.346 3-3v-11h-2zM7 5c0 0 1-2 5-2s5 2 5 2v4h-10v-4zM19 20c0 0.551-0.448 1-1 1h-12c-0.552 0-1-0.449-1-1v-9h14v9zM11 16.723v2.277h2v-2.277c0.596-0.347 1-0.984 1-1.723 0-1.104-0.896-2-2-2s-2 0.896-2 2c0 0.738 0.404 1.376 1 1.723z"></path>
</symbol>
<symbol id="i-users" viewBox="0 0 24 24">
<path d="M23.588 19.96c-1.459-3.359-4.841-5.31-7.296-6.144 1.504-1.229 2.392-3.547 2.392-6.583 0-4.035-3.373-5.102-5.157-5.102-0.287 0-0.617 0.032-0.965 0.095-0.958-0.861-2.225-1.226-3.233-1.226-1.864 0-4.637 1.222-4.637 4.587 0 2.678 0.782 4.729 2.109 5.833-2.088 0.546-4.932 1.894-6.389 5.249l-0.412 0.949 0.963 0.38c0.086 0.034 1.27 0.488 3.062 0.889-0.205 0.348-0.398 0.699-0.561 1.073l-0.413 0.949 0.963 0.38c0.178 0.069 4.401 1.711 9.512 1.711s9.334-1.642 9.512-1.711l0.962-0.38-0.412-0.949zM16.684 7.234c0 3.431-1.21 5.562-3.157 5.562s-3.157-2.131-3.157-5.562c0-2.92 2.635-3.096 3.152-3.102 0.527 0.006 3.162 0.182 3.162 3.102zM9.329 3c0.101 0 0.501 0.017 0.958 0.165-1.070 0.77-1.917 2.046-1.917 4.069 0 1.099 0.119 2.102 0.338 2.996-1.472-0.469-2.016-2.615-2.016-4.643 0-2.431 2.202-2.582 2.637-2.587zM9.329 13.046c0.012 0 0.29 0.006 0.726 0.062 0.436 0.538 0.949 0.954 1.527 1.239-1.574 0.315-3.816 1.067-5.634 2.865-1.31-0.211-2.432-0.494-3.185-0.72 2.147-3.38 6.374-3.445 6.566-3.446zM13.526 21c-3.276 0-6.567-0.75-8.071-1.214 0.237-0.687 0.986-1.595 1.246-1.907 2.793-2.705 6.784-2.762 6.822-2.762 0.008 0 0.729 0.011 1.755 0.216 1.782 0.45 4.55 2.095 5.974 4.451-1.503 0.464-4.445 1.216-7.726 1.216z"></path>
</symbol>
<symbol id="i-close" viewBox="0 0 22 28">
<path d="M20.281 20.656c0 0.391-0.156 0.781-0.438 1.062l-2.125 2.125c-0.281 0.281-0.672 0.438-1.062 0.438s-0.781-0.156-1.062-0.438l-4.594-4.594-4.594 4.594c-0.281 0.281-0.672 0.438-1.062 0.438s-0.781-0.156-1.062-0.438l-2.125-2.125c-0.281-0.281-0.438-0.672-0.438-1.062s0.156-0.781 0.438-1.062l4.594-4.594-4.594-4.594c-0.281-0.281-0.438-0.672-0.438-1.062s0.156-0.781 0.438-1.062l2.125-2.125c0.281-0.281 0.672-0.438 1.062-0.438s0.781 0.156 1.062 0.438l4.594 4.594 4.594-4.594c0.281-0.281 0.672-0.438 1.062-0.438s0.781 0.156 1.062 0.438l2.125 2.125c0.281 0.281 0.438 0.672 0.438 1.062s-0.156 0.781-0.438 1.062l-4.594 4.594 4.594 4.594c0.281 0.281 0.438 0.672 0.438 1.062z"></path>
</symbol>
<symbol id="i-map-marker" viewBox="0 0 16 28">
<path d="M12 10c0-2.203-1.797-4-4-4s-4 1.797-4 4 1.797 4 4 4 4-1.797 4-4zM16 10c0 0.953-0.109 1.937-0.516 2.797l-5.688 12.094c-0.328 0.688-1.047 1.109-1.797 1.109s-1.469-0.422-1.781-1.109l-5.703-12.094c-0.406-0.859-0.516-1.844-0.516-2.797 0-4.422 3.578-8 8-8s8 3.578 8 8z"></path>
</symbol>
<symbol id="i-mission" viewBox="0 0 26 28">
<path d="M13 8c0-1.656-1.344-3-3-3s-3 1.344-3 3c0 0.453 0.109 0.891 0.297 1.297-0.406-0.187-0.844-0.297-1.297-0.297-1.656 0-3 1.344-3 3s1.344 3 3 3 3-1.344 3-3c0-0.453-0.109-0.891-0.297-1.297 0.406 0.187 0.844 0.297 1.297 0.297 1.656 0 3-1.344 3-3zM26.297 19c0 0.359-1.437 1.797-1.797 1.797-0.406 0-1.672-1.469-2-1.797l-1.5 1.5 3.437 3.437c0.281 0.281 0.438 0.672 0.438 1.062 0 0.875-1 1.875-1.875 1.875-0.391 0-0.781-0.156-1.062-0.438l-10.484-10.484c-1.641 1.219-3.641 2.047-5.703 2.047-3.406 0-5.75-2.359-5.75-5.75 0-5.125 5.125-10.25 10.25-10.25 3.391 0 5.75 2.344 5.75 5.75 0 2.063-0.828 4.062-2.047 5.703l5.547 5.547 1.5-1.5c-0.328-0.328-1.797-1.594-1.797-2 0-0.359 1.437-1.797 1.797-1.797 0.125 0 0.266 0.063 0.359 0.156 0.578 0.578 4.937 4.688 4.937 5.141z"></path>
</symbol>
<symbol id="i-phone" viewBox="0 0 22 28">
<path d="M22 19.375c0 0.562-0.25 1.656-0.484 2.172-0.328 0.766-1.203 1.266-1.906 1.656-0.922 0.5-1.859 0.797-2.906 0.797-1.453 0-2.766-0.594-4.094-1.078-0.953-0.344-1.875-0.766-2.734-1.297-2.656-1.641-5.859-4.844-7.5-7.5-0.531-0.859-0.953-1.781-1.297-2.734-0.484-1.328-1.078-2.641-1.078-4.094 0-1.047 0.297-1.984 0.797-2.906 0.391-0.703 0.891-1.578 1.656-1.906 0.516-0.234 1.609-0.484 2.172-0.484 0.109 0 0.219 0 0.328 0.047 0.328 0.109 0.672 0.875 0.828 1.188 0.5 0.891 0.984 1.797 1.5 2.672 0.25 0.406 0.719 0.906 0.719 1.391 0 0.953-2.828 2.344-2.828 3.187 0 0.422 0.391 0.969 0.609 1.344 1.578 2.844 3.547 4.813 6.391 6.391 0.375 0.219 0.922 0.609 1.344 0.609 0.844 0 2.234-2.828 3.187-2.828 0.484 0 0.984 0.469 1.391 0.719 0.875 0.516 1.781 1 2.672 1.5 0.313 0.156 1.078 0.5 1.188 0.828 0.047 0.109 0.047 0.219 0.047 0.328z"></path>
</symbol>
<symbol id="i-email" viewBox="0 0 28 28">
<path d="M28 11.094v12.406c0 1.375-1.125 2.5-2.5 2.5h-23c-1.375 0-2.5-1.125-2.5-2.5v-12.406c0.469 0.516 1 0.969 1.578 1.359 2.594 1.766 5.219 3.531 7.766 5.391 1.313 0.969 2.938 2.156 4.641 2.156h0.031c1.703 0 3.328-1.188 4.641-2.156 2.547-1.844 5.172-3.625 7.781-5.391 0.562-0.391 1.094-0.844 1.563-1.359zM28 6.5c0 1.75-1.297 3.328-2.672 4.281-2.438 1.687-4.891 3.375-7.313 5.078-1.016 0.703-2.734 2.141-4 2.141h-0.031c-1.266 0-2.984-1.437-4-2.141-2.422-1.703-4.875-3.391-7.297-5.078-1.109-0.75-2.688-2.516-2.688-3.938 0-1.531 0.828-2.844 2.5-2.844h23c1.359 0 2.5 1.125 2.5 2.5z"></path>
</symbol>
<symbol id="i-linkedin" viewBox="0 0 24 28">
<path d="M5.453 9.766v15.484h-5.156v-15.484h5.156zM5.781 4.984c0.016 1.484-1.109 2.672-2.906 2.672v0h-0.031c-1.734 0-2.844-1.188-2.844-2.672 0-1.516 1.156-2.672 2.906-2.672 1.766 0 2.859 1.156 2.875 2.672zM24 16.375v8.875h-5.141v-8.281c0-2.078-0.75-3.5-2.609-3.5-1.422 0-2.266 0.953-2.641 1.875-0.125 0.344-0.172 0.797-0.172 1.266v8.641h-5.141c0.063-14.031 0-15.484 0-15.484h5.141v2.25h-0.031c0.672-1.062 1.891-2.609 4.672-2.609 3.391 0 5.922 2.219 5.922 6.969z"></path>
</symbol>
<symbol id="i-vk" viewBox="0 0 31 28">
<path d="M29.953 8.125c0.234 0.641-0.5 2.141-2.344 4.594-3.031 4.031-3.359 3.656-0.859 5.984 2.406 2.234 2.906 3.313 2.984 3.453 0 0 1 1.75-1.109 1.766l-4 0.063c-0.859 0.172-2-0.609-2-0.609-1.5-1.031-2.906-3.703-4-3.359 0 0-1.125 0.359-1.094 2.766 0.016 0.516-0.234 0.797-0.234 0.797s-0.281 0.297-0.828 0.344h-1.797c-3.953 0.25-7.438-3.391-7.438-3.391s-3.813-3.938-7.156-11.797c-0.219-0.516 0.016-0.766 0.016-0.766s0.234-0.297 0.891-0.297l4.281-0.031c0.406 0.063 0.688 0.281 0.688 0.281s0.25 0.172 0.375 0.5c0.703 1.75 1.609 3.344 1.609 3.344 1.563 3.219 2.625 3.766 3.234 3.437 0 0 0.797-0.484 0.625-4.375-0.063-1.406-0.453-2.047-0.453-2.047-0.359-0.484-1.031-0.625-1.328-0.672-0.234-0.031 0.156-0.594 0.672-0.844 0.766-0.375 2.125-0.391 3.734-0.375 1.266 0.016 1.625 0.094 2.109 0.203 1.484 0.359 0.984 1.734 0.984 5.047 0 1.062-0.203 2.547 0.562 3.031 0.328 0.219 1.141 0.031 3.141-3.375 0 0 0.938-1.625 1.672-3.516 0.125-0.344 0.391-0.484 0.391-0.484s0.25-0.141 0.594-0.094l4.5-0.031c1.359-0.172 1.578 0.453 1.578 0.453z"></path>
</symbol>
<symbol id="i-telegram" viewBox="0 0 28 28">
<path d="M27.563 0.172c0.328 0.234 0.484 0.609 0.422 1l-4 24c-0.047 0.297-0.234 0.547-0.5 0.703-0.141 0.078-0.313 0.125-0.484 0.125-0.125 0-0.25-0.031-0.375-0.078l-7.078-2.891-3.781 4.609c-0.187 0.234-0.469 0.359-0.766 0.359-0.109 0-0.234-0.016-0.344-0.063-0.391-0.141-0.656-0.516-0.656-0.938v-5.453l13.5-16.547-16.703 14.453-6.172-2.531c-0.359-0.141-0.594-0.469-0.625-0.859-0.016-0.375 0.172-0.734 0.5-0.922l26-15c0.156-0.094 0.328-0.141 0.5-0.141 0.203 0 0.406 0.063 0.562 0.172z"></path>
</symbol>
<symbol id="i-plus" viewBox="0 0 20 20">
<path d="M10 1.6c-4.639 0-8.4 3.761-8.4 8.4s3.761 8.4 8.4 8.4 8.4-3.761 8.4-8.4c0-4.639-3.761-8.4-8.4-8.4zM15 11h-4v4h-2v-4h-4v-2h4v-4h2v4h4v2z"></path>
</symbol>
<symbol id="i-menu" viewBox="0 0 20 20">
<path d="M0 3h20v2h-20v-2zM0 9h20v2h-20v-2zM0 15h20v2h-20v-2z"></path>
</symbol>
<symbol id="i-user" viewBox="0 0 20 20">
<path d="M10 20c-5.523 0-10-4.477-10-10s4.477-10 10-10v0c5.523 0 10 4.477 10 10s-4.477 10-10 10v0zM7 6v2c0 1.657 1.343 3 3 3s3-1.343 3-3v0-2c0-1.657-1.343-3-3-3s-3 1.343-3 3v0zM3.35 14.44c1.456 2.155 3.89 3.553 6.65 3.553s5.194-1.398 6.632-3.525l0.018-0.028c-1.951-0.918-4.238-1.453-6.65-1.453s-4.699 0.536-6.748 1.495l0.098-0.041z"></path>
</symbol>
</defs>
</svg>
