<svg aria-hidden="true" style="position: absolute; width: 0; height: 0; overflow: hidden;" version="1.1" xmlns="http://www.w3.org/2000/svg" xmlns:xlink="http://www.w3.org/1999/xlink">
<defs>
<symbol id="i-time" viewBox="0 0 16 16">
<path d="M9 7v-3h-2v5h4v-2zM8 0c-4.418 0-8 3.582-8 8s3.582 8 8 8 8-3.582 8-8-3.582-8-8-8zM8 14c-3.313 0-6-2.687-6-6s2.687-6 6-6 6 2.687 6 6-2.687 6-6 6z"></path>
</symbol>
<symbol id="i-users" viewBox="0 0 16 16">
<path d="M9 9.555v-2.555c0-1.657-1.343-3-3-3s-3 1.343-3 3v2.555c-1.786 0.693-3 1.969-3 3.445 0 0.177 0 2 0 2 0 0.553 0.447 1 1 1h10c0.553 0 1-0.447 1-1 0 0 0-1.823 0-2 0-1.477-1.214-2.752-3-3.445zM5 7c0-0.553 0.447-1 1-1s1 0.447 1 1v3c0 0.553-0.447 1-1 1s-1-0.447-1-1v-3zM10 14h-8v-1c0-0.607 0.554-1.146 1.409-1.513 0.519 0.9 1.479 1.513 2.591 1.513s2.072-0.612 2.591-1.513c0.855 0.367 1.409 0.905 1.409 1.513v1zM13 5.555v-2.555c0-1.657-1.343-3-3-3s-3 1.343-3 3v0.142c0.79 0.204 1.479 0.642 2 1.238v-1.38c0-0.553 0.447-1 1-1s1 0.447 1 1v3c0 0.553-0.447 1-1 1v2c1.112 0 2.072-0.612 2.591-1.513 0.855 0.367 1.409 0.905 1.409 1.513v1h-3.649c1.007 0.519 1.78 1.203 2.221 2h2.429c0.553 0 1-0.447 1-1 0 0 0-1.823 0-2 0-1.477-1.214-2.752-3-3.445z"></path>
</symbol>
<symbol id="i-add" viewBox="0 0 24 24">
<path d="M21.984 5.203l-11.391 11.391-4.266-4.219 1.453-1.406 2.813 2.813 9.984-9.984zM12 20.016q-1.641 0-3.094-0.633t-2.555-1.734-1.734-2.555-0.633-3.094 0.633-3.094 1.734-2.555 2.555-1.734 3.094-0.633q1.172 0 2.25 0.328t2.016 0.938l1.453-1.453q-1.219-0.844-2.672-1.313t-3.047-0.469q-2.063 0-3.867 0.773t-3.188 2.156-2.156 3.188-0.773 3.867 0.773 3.867 2.156 3.188 3.188 2.156 3.867 0.773q1.313 0 2.508-0.305t2.273-0.914l-1.5-1.5q-0.75 0.375-1.57 0.563t-1.711 0.188zM18.984 15h-3v2.016h3v3h2.016v-3h3v-2.016h-3v-3h-2.016v3z"></path>
</symbol>
<symbol id="i-safe" viewBox="0 0 24 24">
<path d="M19 9v-3c0-2-2-5-7-5s-7 3-7 5v3h-2v11c0 1.654 1.346 3 3 3h12c1.654 0 3-1.346 3-3v-11h-2zM7 5c0 0 1-2 5-2s5 2 5 2v4h-10v-4zM19 20c0 0.551-0.448 1-1 1h-12c-0.552 0-1-0.449-1-1v-9h14v9zM11 16.723v2.277h2v-2.277c0.596-0.347 1-0.984 1-1.723 0-1.104-0.896-2-2-2s-2 0.896-2 2c0 0.738 0.404 1.376 1 1.723z"></path>
</symbol>
<symbol id="i-users1" viewBox="0 0 24 24">
<path d="M23.588 19.96c-1.459-3.359-4.841-5.31-7.296-6.144 1.504-1.229 2.392-3.547 2.392-6.583 0-4.035-3.373-5.102-5.157-5.102-0.287 0-0.617 0.032-0.965 0.095-0.958-0.861-2.225-1.226-3.233-1.226-1.864 0-4.637 1.222-4.637 4.587 0 2.678 0.782 4.729 2.109 5.833-2.088 0.546-4.932 1.894-6.389 5.249l-0.412 0.949 0.963 0.38c0.086 0.034 1.27 0.488 3.062 0.889-0.205 0.348-0.398 0.699-0.561 1.073l-0.413 0.949 0.963 0.38c0.178 0.069 4.401 1.711 9.512 1.711s9.334-1.642 9.512-1.711l0.962-0.38-0.412-0.949zM16.684 7.234c0 3.431-1.21 5.562-3.157 5.562s-3.157-2.131-3.157-5.562c0-2.92 2.635-3.096 3.152-3.102 0.527 0.006 3.162 0.182 3.162 3.102zM9.329 3c0.101 0 0.501 0.017 0.958 0.165-1.070 0.77-1.917 2.046-1.917 4.069 0 1.099 0.119 2.102 0.338 2.996-1.472-0.469-2.016-2.615-2.016-4.643 0-2.431 2.202-2.582 2.637-2.587zM9.329 13.046c0.012 0 0.29 0.006 0.726 0.062 0.436 0.538 0.949 0.954 1.527 1.239-1.574 0.315-3.816 1.067-5.634 2.865-1.31-0.211-2.432-0.494-3.185-0.72 2.147-3.38 6.374-3.445 6.566-3.446zM13.526 21c-3.276 0-6.567-0.75-8.071-1.214 0.237-0.687 0.986-1.595 1.246-1.907 2.793-2.705 6.784-2.762 6.822-2.762 0.008 0 0.729 0.011 1.755 0.216 1.782 0.45 4.55 2.095 5.974 4.451-1.503 0.464-4.445 1.216-7.726 1.216z"></path>
</symbol>
<symbol id="i-menu" viewBox="0 0 20 20">
<path d="M0 3h20v2h-20v-2zM0 9h20v2h-20v-2zM0 15h20v2h-20v-2z"></path>
</symbol>
<symbol id="i-user" viewBox="0 0 20 20">
<path d="M10 20c-5.523 0-10-4.477-10-10s4.477-10 10-10v0c5.523 0 10 4.477 10 10s-4.477 10-10 10v0zM7 6v2c0 1.657 1.343 3 3 3s3-1.343 3-3v0-2c0-1.657-1.343-3-3-3s-3 1.343-3 3v0zM3.35 14.44c1.456 2.155 3.89 3.553 6.65 3.553s5.194-1.398 6.632-3.525l0.018-0.028c-1.951-0.918-4.238-1.453-6.65-1.453s-4.699 0.536-6.748 1.495l0.098-0.041z"></path>
</symbol>
</defs>
</svg>
